<?xml version="1.0" encoding="utf-8"?>
<!-- Generator: Adobe Illustrator 16.0.0, SVG Export Plug-In . SVG Version: 6.00 Build 0)  -->
<!DOCTYPE svg PUBLIC "-//W3C//DTD SVG 1.1//EN" "http://www.w3.org/Graphics/SVG/1.1/DTD/svg11.dtd">
<svg version="1.1" id="ICON" xmlns="http://www.w3.org/2000/svg" xmlnsXlink="http://www.w3.org/1999/xlink" x="0px" y="0px"
	 width="12.125px" height="12.125px" viewBox="0 1.875 12.125 12.125" enable-background="new 0 1.875 12.125 12.125"
	 xmlSpace="preserve">

<g>
	<path fill="current" d="M12.087,2.184c-0.051-0.123-0.148-0.22-0.271-0.271c-0.061-0.025-0.125-0.039-0.19-0.039H6.49
		c-0.276,0-0.5,0.224-0.5,0.5s0.224,0.5,0.5,0.5h3.928L4.99,8.303c-0.195,0.195-0.195,0.512,0,0.707
		c0.098,0.098,0.226,0.146,0.354,0.146S5.599,9.107,5.697,9.01l5.428-5.428V7.51c0,0.276,0.224,0.5,0.5,0.5s0.5-0.224,0.5-0.5V2.375
		C12.125,2.31,12.112,2.245,12.087,2.184z"/>
	<path fill="current" d="M9.626,8c-0.276,0-0.5,0.224-0.5,0.5v4.145C9.126,12.841,8.967,13,8.77,13H1.356
		C1.159,13,1,12.841,1,12.645V5.216c0-0.196,0.16-0.355,0.356-0.355h4.133c0.276,0,0.5-0.224,0.5-0.5s-0.224-0.5-0.5-0.5H1.356
		C0.608,3.861,0,4.469,0,5.216v7.428C0,13.392,0.608,14,1.356,14H8.77c0.747,0,1.355-0.608,1.355-1.355V8.5
		C10.126,8.224,9.902,8,9.626,8z"/>
</g>
</svg>
